<mxfile host="app.diagrams.net" modified="2023-08-30T12:52:38.635Z" agent="Mozilla/5.0 (Windows NT 10.0; Win64; x64) AppleWebKit/537.36 (KHTML, like Gecko) Chrome/114.0.0.0 YaBrowser/23.7.3.824 Yowser/2.5 Safari/537.36" etag="WB4l1_aU84405AfbO0cA" version="21.6.9" type="device">
  <diagram name="Страница — 1" id="2SEF8z2-ijLGLjMWC1Nz">
    <mxGraphModel dx="995" dy="609" grid="1" gridSize="10" guides="1" tooltips="1" connect="1" arrows="1" fold="1" page="1" pageScale="1" pageWidth="827" pageHeight="1169" math="0" shadow="0">
      <root>
        <mxCell id="0" />
        <mxCell id="1" parent="0" />
        <mxCell id="vjVmL5ULh3r2CZQmx_MN-10" style="edgeStyle=orthogonalEdgeStyle;rounded=0;orthogonalLoop=1;jettySize=auto;html=1;entryX=0.5;entryY=0;entryDx=0;entryDy=0;" edge="1" parent="1" source="vjVmL5ULh3r2CZQmx_MN-1" target="vjVmL5ULh3r2CZQmx_MN-2">
          <mxGeometry relative="1" as="geometry" />
        </mxCell>
        <mxCell id="vjVmL5ULh3r2CZQmx_MN-1" value="Start" style="ellipse;whiteSpace=wrap;html=1;" vertex="1" parent="1">
          <mxGeometry x="280" y="30" width="120" height="50" as="geometry" />
        </mxCell>
        <mxCell id="vjVmL5ULh3r2CZQmx_MN-11" style="edgeStyle=orthogonalEdgeStyle;rounded=0;orthogonalLoop=1;jettySize=auto;html=1;exitX=0.5;exitY=1;exitDx=0;exitDy=0;entryX=0.5;entryY=0;entryDx=0;entryDy=0;" edge="1" parent="1" source="vjVmL5ULh3r2CZQmx_MN-2" target="vjVmL5ULh3r2CZQmx_MN-3">
          <mxGeometry relative="1" as="geometry" />
        </mxCell>
        <mxCell id="vjVmL5ULh3r2CZQmx_MN-2" value="Numbers= {2,6,3,25,11}&lt;br&gt;size=5&lt;br&gt;sum=0&lt;br&gt;average=0&lt;br&gt;index=0" style="whiteSpace=wrap;html=1;aspect=fixed;" vertex="1" parent="1">
          <mxGeometry x="285" y="120" width="110" height="110" as="geometry" />
        </mxCell>
        <mxCell id="vjVmL5ULh3r2CZQmx_MN-13" style="edgeStyle=orthogonalEdgeStyle;rounded=0;orthogonalLoop=1;jettySize=auto;html=1;exitX=0.5;exitY=1;exitDx=0;exitDy=0;entryX=0.5;entryY=0;entryDx=0;entryDy=0;" edge="1" parent="1" source="vjVmL5ULh3r2CZQmx_MN-3" target="vjVmL5ULh3r2CZQmx_MN-5">
          <mxGeometry relative="1" as="geometry" />
        </mxCell>
        <mxCell id="vjVmL5ULh3r2CZQmx_MN-18" style="edgeStyle=none;rounded=0;orthogonalLoop=1;jettySize=auto;html=1;exitX=1;exitY=0.5;exitDx=0;exitDy=0;entryX=0;entryY=0.25;entryDx=0;entryDy=0;" edge="1" parent="1" source="vjVmL5ULh3r2CZQmx_MN-3" target="vjVmL5ULh3r2CZQmx_MN-8">
          <mxGeometry relative="1" as="geometry" />
        </mxCell>
        <mxCell id="vjVmL5ULh3r2CZQmx_MN-3" value="index&amp;lt;size?" style="rhombus;whiteSpace=wrap;html=1;" vertex="1" parent="1">
          <mxGeometry x="300" y="260" width="80" height="80" as="geometry" />
        </mxCell>
        <mxCell id="vjVmL5ULh3r2CZQmx_MN-16" style="edgeStyle=orthogonalEdgeStyle;rounded=0;orthogonalLoop=1;jettySize=auto;html=1;exitX=0.5;exitY=1;exitDx=0;exitDy=0;" edge="1" parent="1" source="vjVmL5ULh3r2CZQmx_MN-5">
          <mxGeometry relative="1" as="geometry">
            <mxPoint x="340" y="500" as="targetPoint" />
          </mxGeometry>
        </mxCell>
        <mxCell id="vjVmL5ULh3r2CZQmx_MN-5" value="sum=sum+numbers{index}" style="rounded=0;whiteSpace=wrap;html=1;" vertex="1" parent="1">
          <mxGeometry x="255" y="380" width="170" height="60" as="geometry" />
        </mxCell>
        <mxCell id="vjVmL5ULh3r2CZQmx_MN-17" style="edgeStyle=orthogonalEdgeStyle;rounded=0;orthogonalLoop=1;jettySize=auto;html=1;exitX=0;exitY=0.5;exitDx=0;exitDy=0;" edge="1" parent="1" source="vjVmL5ULh3r2CZQmx_MN-6" target="vjVmL5ULh3r2CZQmx_MN-3">
          <mxGeometry relative="1" as="geometry">
            <mxPoint x="170" y="310" as="targetPoint" />
            <Array as="points">
              <mxPoint x="171" y="530" />
              <mxPoint x="171" y="300" />
            </Array>
          </mxGeometry>
        </mxCell>
        <mxCell id="vjVmL5ULh3r2CZQmx_MN-6" value="Index=index+1" style="rounded=0;whiteSpace=wrap;html=1;" vertex="1" parent="1">
          <mxGeometry x="285" y="500" width="120" height="60" as="geometry" />
        </mxCell>
        <mxCell id="vjVmL5ULh3r2CZQmx_MN-23" style="edgeStyle=none;rounded=0;orthogonalLoop=1;jettySize=auto;html=1;exitX=1;exitY=0.25;exitDx=0;exitDy=0;" edge="1" parent="1" source="vjVmL5ULh3r2CZQmx_MN-8">
          <mxGeometry relative="1" as="geometry">
            <mxPoint x="680" y="300.33333333333337" as="targetPoint" />
          </mxGeometry>
        </mxCell>
        <mxCell id="vjVmL5ULh3r2CZQmx_MN-8" value="average=sum\size" style="shape=document;whiteSpace=wrap;html=1;boundedLbl=1;" vertex="1" parent="1">
          <mxGeometry x="530" y="280" width="120" height="80" as="geometry" />
        </mxCell>
        <mxCell id="vjVmL5ULh3r2CZQmx_MN-12" value="true" style="text;html=1;align=center;verticalAlign=middle;resizable=0;points=[];autosize=1;strokeColor=none;fillColor=none;" vertex="1" parent="1">
          <mxGeometry x="355" y="330" width="40" height="30" as="geometry" />
        </mxCell>
        <mxCell id="vjVmL5ULh3r2CZQmx_MN-19" value="End" style="rounded=1;whiteSpace=wrap;html=1;" vertex="1" parent="1">
          <mxGeometry x="685" y="280" width="120" height="60" as="geometry" />
        </mxCell>
        <mxCell id="vjVmL5ULh3r2CZQmx_MN-21" value="&lt;b style=&quot;font-size: 16px;&quot;&gt;Д.З №2.4&amp;nbsp; Найти средне арифметическое среди всех&lt;br&gt;элементов массива&lt;/b&gt;" style="text;html=1;align=center;verticalAlign=middle;resizable=0;points=[];autosize=1;strokeColor=none;fillColor=none;" vertex="1" parent="1">
          <mxGeometry x="405" y="30" width="440" height="50" as="geometry" />
        </mxCell>
        <mxCell id="vjVmL5ULh3r2CZQmx_MN-24" value="false" style="text;html=1;align=center;verticalAlign=middle;resizable=0;points=[];autosize=1;strokeColor=none;fillColor=none;" vertex="1" parent="1">
          <mxGeometry x="425" y="270" width="50" height="30" as="geometry" />
        </mxCell>
      </root>
    </mxGraphModel>
  </diagram>
</mxfile>
